<svg clip-rule="evenodd" fill-rule="evenodd" height="251.557647" stroke-linejoin="round" stroke-miterlimit="2" viewBox="0 0 120 76" width="397.523196" xmlns="http://www.w3.org/2000/svg"><g fill-rule="nonzero"><path d="m0-34.12c4.528 0 7.072 4.78 9.755 4.78 2.078 0 3.923-3.775 7.925-3.775 5.431 0 2.232 9.646 6.9 9.646 1.503 0 2.428-1.002 3.812-1.002.412 0 2.118.719 2.118 3.007 0 1.323-1.417 3.029-1.879 3.424-.496.426-1.254 1.028-.961 2.589.088.469.126 3.022.126 3.759 0 .968-.584 1.754-1.713 1.754-1.846 0-2.405-1.856-2.797-2.84-4.612-11.545-15.839-14.992-17.707-14.992 1.895.9 18.918 8.64 18.918 24.555 0 1.754.155 3.215-.669 3.215-1.187 0-1.712-1.468-1.712-1.753 0-.845.793-.623.793-3.466 0-3.263-6.872-4.329-7.934-4.594-1.059-.264-2.714-.799-2.714-2.339 0-.949 1.378-1.563 1.378-2.589 0-.585-1.733-.723-2.345-.792-.898-.102-5.164-.585-5.813-.659-.836-.094-2.7-.542-2.7-1.931 0-1.286 1.086-1.989 1.086-2.631 0-1.044-2.905-1.262-3.963-1.406-1.005-.137-4.264-.366-4.264-2.52 0-1.044 1.461-2.208 1.461-3.173 0-.839-1.661-1.843-1.661-2.929 0-.674 1.248-3.338 4.56-3.338" fill="#006554" transform="matrix(.978157 0 0 .978157 54.728 33.4109)"/><path d="m0-32.803c.218-.008.593.578.602.849.02.551-.124.743-.588 1.056-.326.221-1.563 1.184-1.524 2.26.143 3.948 6.825 2.825 6.912 5.222.065 1.795-1.815 1.74-1.765 3.139.101 2.794 10.485.141 10.608 3.537.075 2.091-1.508 1.954-1.456 3.401.1 2.767 8.23.245 8.35 3.564.079 2.201-2.539 2.087-2.482 3.655.047 1.301 2.009 1.365 2.055 2.62.027.761-.973 3.193-4.046 3.304-5.657.204-5.909-4.714-9.094-4.598-3.232.116-5.317 2.832-8.658 2.953-2.649.095-3.956-2.489-4.005-3.857s.943-5.968-2.715-5.836c-1.103.04-2.297.372-3.308.409-.78.028-2.674-.972-2.745-2.939-.165-4.579 3.857-4.009 3.784-6.017-.031-.847-.375-2.085-.404-2.898-.036-1.003.622-2.554 2.138-2.609 1.039-.037 1.689.021 2.163 1.855 2.817 10.904 15.067 17.586 20.093 17.457-6.209-2.168-18.32-9.615-18.881-19.325-.151-2.614 2.797-7.124 4.966-7.202" fill="#7dc242" transform="matrix(.978157 0 0 .978157 48.9846 37.6144)"/><g fill="#b35313"><path d="m.236-14.601h-1.372s-3.461 9.876-3.705 10.573c-.255-.693-3.896-10.573-3.896-10.573h-2.138s.743 1.72.792 1.833c-.042.116-2.818 7.91-3.094 8.684-.297-.786-3.972-10.517-3.972-10.517h-2.053l5.494 14.601h.468s3.606-10.244 3.852-10.943c.256.696 4.013 10.943 4.013 10.943h.469z" transform="matrix(.978157 0 0 .978157 18.7826 59.4547)"/><path d="m0 .023c0-3.901 1.953-6.23 5.226-6.23 3.174 0 5.225 2.391 5.225 6.09 0 5.888-4 6.346-5.225 6.346-3.224 0-5.226-2.378-5.226-6.206m-2.295-.023c0 3.094 2.333 7.451 7.521 7.451 5.187 0 7.521-4.357 7.521-7.451 0-3.084-2.334-7.428-7.521-7.428-5.188 0-7.521 4.344-7.521 7.428" transform="matrix(.978157 0 0 .978157 22.288 52.1666)"/><path d="m0 .023c0-3.901 1.953-6.23 5.225-6.23 3.175 0 5.226 2.391 5.226 6.09 0 5.888-4 6.346-5.226 6.346-3.223 0-5.225-2.378-5.225-6.206m-2.295-.023c0 3.094 2.333 7.451 7.52 7.451s7.521-4.357 7.521-7.451c0-3.084-2.334-7.428-7.521-7.428-5.187 0-7.52 4.344-7.52 7.428" transform="matrix(.978157 0 0 .978157 39.6617 52.1666)"/><path d="m0-11.874c3.001 0 6.579 1.138 6.579 6.558 0 3.677-1.9 5.317-6.16 5.317h-1.7v-11.875zm1.423-1.223h-4.649v14.32h4.556c4.636 0 7.405-2.611 7.405-6.983 0-4.252-3.076-7.337-7.312-7.337z" transform="matrix(.978157 0 0 .978157 58.3049 57.984)"/><path d="m0-11.874c3.001 0 6.579 1.138 6.579 6.558 0 3.677-1.9 5.317-6.16 5.317h-1.7v-11.875zm1.423-1.223h-4.649v14.32h4.556c4.636 0 7.404-2.611 7.404-6.983 0-4.252-3.075-7.337-7.311-7.337z" transform="matrix(.978157 0 0 .978157 111.457 57.984)"/><path d="m.167-14.32h-1.944v14.32h8.039v-1.222h-6.095z" transform="matrix(.978157 0 0 .978157 71.6408 59.1799)"/><path d="m0-9.046c.241.642 1.938 5.167 2.085 5.559h-3.893c.123-.381 1.595-4.906 1.808-5.559m1.043-2.776h-1.171l-5.147 14.598h1.262s1.712-4.829 1.787-5.042h4.716c.077.209 1.869 5.042 1.869 5.042h2.061z" transform="matrix(.978157 0 0 .978157 84.8967 56.4648)"/><path d="m.167-14.313h-1.267v11.304c-.474-.583-9.189-11.304-9.189-11.304h-1.106v14.313h1.269v-11.171c.475.582 9.113 11.171 9.113 11.171h1.18z" transform="matrix(.978157 0 0 .978157 104.718 59.1804)"/><path d="m0-7.111c1.563 0 1.684 1.201 1.684 1.568 0 1.03-.739 1.597-2.082 1.597h-.232v-3.165zm.256-.873h-2.201v8.857h1.315v-3.943h.29c.982 0 1.599.473 2.199 1.687l1.111 2.256h1.412l-1.114-2.277c-.531-1.089-.974-1.615-1.731-1.995 1.068-.376 1.563-1.357 1.563-2.2 0-1.1-.745-2.385-2.844-2.385z" transform="matrix(.978157 0 0 .978157 51.1646 74.3433)"/><path d="m.167-8.866h-7.251v1.105h2.987v7.761h1.275v-7.761h2.989z" transform="matrix(.978157 0 0 .978157 79.1682 75.1975)"/><path d="m.167-8.866h-7.251v1.105h2.987v7.761h1.275v-7.761h2.989z" transform="matrix(.978157 0 0 .978157 47.5974 75.1975)"/><path d="m.167-9.031h-1.316v5.547c0 1.611-.878 2.612-2.294 2.612-1.459 0-2.296-.974-2.296-2.672v-5.487h-1.317v5.633c0 2.096 1.384 3.398 3.613 3.398 2.227 0 3.61-1.302 3.61-3.398z" transform="matrix(.978157 0 0 .978157 63.6496 75.3638)"/><path d="m0-4.635c0 1.614 1.235 2.318 2.325 2.941.866.494 1.612.921 1.612 1.696 0 .263-.109.681-.419.992-.283.282-.678.424-1.178.424-1.289-.002-2.156-1.419-2.334-1.719v1.444c.165.186 1.073 1.131 2.485 1.131 1.593 0 2.664-.983 2.664-2.449 0-1.565-1.191-2.228-2.24-2.814-.914-.508-1.703-.948-1.703-1.862 0-.719.511-1.183 1.304-1.183 1.247 0 1.931.922 2.26 1.554v-1.383c-.221-.272-.916-1.046-2.183-1.046-1.249 0-2.593.712-2.593 2.274" transform="matrix(.978157 0 0 .978157 66.3073 73.1213)"/></g></g></svg>